<svg width="355" height="20" viewBox="0 0 355 20" fill="none" xmlns="http://www.w3.org/2000/svg">
<rect y="9" width="2" height="2" rx="1" fill="#A2845E"/>
<rect x="6" y="6" width="2" height="8" rx="1" fill="#A2845E"/>
<rect x="12" y="3" width="2" height="14" rx="1" fill="#A2845E"/>
<rect x="18" y="8" width="2" height="4" rx="1" fill="#A2845E"/>
<rect x="24" y="2" width="2" height="16" rx="1" fill="#A2845E"/>
<rect x="30" y="3" width="2" height="14" rx="1" fill="#A2845E"/>
<rect x="36" y="5" width="2" height="10" rx="1" fill="#A2845E"/>
<rect x="42" y="5" width="2" height="10" rx="1" fill="#A2845E"/>
<rect x="48" y="5" width="2" height="10" rx="1" fill="#A2845E"/>
<rect x="54" y="3" width="2" height="14" rx="1" fill="#A2845E"/>
<rect x="60" y="5" width="2" height="10" rx="1" fill="#A2845E"/>
<rect x="66" y="2" width="2" height="16" rx="1" fill="#A2845E"/>
<rect x="72" y="5" width="2" height="10" rx="1" fill="#A2845E"/>
<rect x="78" y="8" width="2" height="4" rx="1" fill="#A2845E"/>
<rect x="84" y="6" width="2" height="8" rx="1" fill="#A2845E"/>
<rect x="90" y="9" width="2" height="2" rx="1" fill="#A2845E"/>
<rect x="96" y="6" width="2" height="8" rx="1" fill="#A2845E"/>
<rect x="102" y="3" width="2" height="14" rx="1" fill="#A2845E"/>
<rect x="108" y="8" width="2" height="4" rx="1" fill="#A2845E"/>
<rect x="114" width="2" height="20" rx="1" fill="#A2845E"/>
<rect x="120" y="3" width="2" height="14" rx="1" fill="#A2845E"/>
<rect x="126" y="5" width="2" height="10" rx="1" fill="#A2845E"/>
<rect x="132" y="5" width="2" height="10" rx="1" fill="#A2845E"/>
<rect x="138" y="5" width="2" height="10" rx="1" fill="#A2845E"/>
<rect x="144" y="1" width="2" height="18" rx="1" fill="#A2845E"/>
<rect x="150" y="5" width="2" height="10" rx="1" fill="#A2845E"/>
<rect x="156" width="2" height="20" rx="1" fill="#A2845E"/>
<rect x="162" y="5" width="2" height="10" rx="1" fill="#A2845E"/>
<rect x="168" y="8" width="2" height="4" rx="1" fill="#A2845E"/>
<rect x="174" y="9" width="2" height="2" rx="1" fill="#A2845E"/>
<rect opacity="0.21" x="265" y="11" width="2" height="2" rx="1" transform="rotate(-180 265 11)" fill="white"/>
<rect opacity="0.21" x="259" y="14" width="2" height="8" rx="1" transform="rotate(-180 259 14)" fill="white"/>
<rect opacity="0.21" x="253" y="17" width="2" height="14" rx="1" transform="rotate(-180 253 17)" fill="white"/>
<rect opacity="0.21" x="247" y="12" width="2" height="4" rx="1" transform="rotate(-180 247 12)" fill="white"/>
<rect opacity="0.21" x="241" y="18" width="2" height="16" rx="1" transform="rotate(-180 241 18)" fill="white"/>
<rect opacity="0.21" x="235" y="17" width="2" height="14" rx="1" transform="rotate(-180 235 17)" fill="white"/>
<rect opacity="0.21" x="229" y="15" width="2" height="10" rx="1" transform="rotate(-180 229 15)" fill="white"/>
<rect opacity="0.21" x="223" y="15" width="2" height="10" rx="1" transform="rotate(-180 223 15)" fill="white"/>
<rect opacity="0.21" x="217" y="15" width="2" height="10" rx="1" transform="rotate(-180 217 15)" fill="white"/>
<rect opacity="0.21" x="211" y="17" width="2" height="14" rx="1" transform="rotate(-180 211 17)" fill="white"/>
<rect x="205" y="15" width="2" height="10" rx="1" transform="rotate(-180 205 15)" fill="#A2845E"/>
<rect x="199" y="18" width="2" height="16" rx="1" transform="rotate(-180 199 18)" fill="#A2845E"/>
<rect x="193" y="15" width="2" height="10" rx="1" transform="rotate(-180 193 15)" fill="#A2845E"/>
<rect x="187" y="12" width="2" height="4" rx="1" transform="rotate(-180 187 12)" fill="#A2845E"/>
<rect x="181" y="14.5" width="2" height="9" rx="1" transform="rotate(-180 181 14.5)" fill="#A2845E"/>
<rect opacity="0.21" x="355" y="11" width="2" height="2" rx="1" transform="rotate(-180 355 11)" fill="white"/>
<rect opacity="0.21" x="349" y="14" width="2" height="8" rx="1" transform="rotate(-180 349 14)" fill="white"/>
<rect opacity="0.21" x="343" y="17" width="2" height="14" rx="1" transform="rotate(-180 343 17)" fill="white"/>
<rect opacity="0.21" x="337" y="12" width="2" height="4" rx="1" transform="rotate(-180 337 12)" fill="white"/>
<rect opacity="0.21" x="331" y="18" width="2" height="16" rx="1" transform="rotate(-180 331 18)" fill="white"/>
<rect opacity="0.21" x="325" y="17" width="2" height="14" rx="1" transform="rotate(-180 325 17)" fill="white"/>
<rect opacity="0.21" x="319" y="15" width="2" height="10" rx="1" transform="rotate(-180 319 15)" fill="white"/>
<rect opacity="0.21" x="313" y="15" width="2" height="10" rx="1" transform="rotate(-180 313 15)" fill="white"/>
<rect opacity="0.21" x="307" y="15" width="2" height="10" rx="1" transform="rotate(-180 307 15)" fill="white"/>
<rect opacity="0.21" x="301" y="17" width="2" height="14" rx="1" transform="rotate(-180 301 17)" fill="white"/>
<rect opacity="0.21" x="295" y="15" width="2" height="10" rx="1" transform="rotate(-180 295 15)" fill="white"/>
<rect opacity="0.21" x="289" y="18" width="2" height="16" rx="1" transform="rotate(-180 289 18)" fill="white"/>
<rect opacity="0.21" x="283" y="15" width="2" height="10" rx="1" transform="rotate(-180 283 15)" fill="white"/>
<rect opacity="0.21" x="277" y="12" width="2" height="4" rx="1" transform="rotate(-180 277 12)" fill="white"/>
<rect opacity="0.21" x="271" y="11" width="2" height="2" rx="1" transform="rotate(-180 271 11)" fill="white"/>
</svg>
