<svg width="3774" height="1020" viewBox="0 0 3774 1020" fill="none" xmlns="http://www.w3.org/2000/svg">
<rect x="834" width="1020" height="133" transform="rotate(90 834 0)" fill="black"/>
<rect x="612" y="144" width="732" height="133" transform="rotate(90 612 144)" fill="black"/>
<rect x="390" y="294" width="432" height="133" transform="rotate(90 390 294)" fill="black"/>
<circle cx="84" cy="510" r="84" transform="rotate(90 84 510)" fill="black"/>
<path d="M3387.03 989.766L3505.86 726.825L3527.77 690.586L3639.01 387.193H3773.85L3513.44 989.766H3387.03ZM3478.05 808.572L3312.86 387.193H3449.39L3585.08 771.491L3478.05 808.572Z" fill="black"/>
<path d="M2867.97 817V366.967C2867.97 315.277 2882.01 276.23 2910.11 249.823C2938.2 223.417 2979.77 210.213 3034.83 210.213H3213.5V318.087H3056.75C3035.4 318.087 3019.66 323.143 3009.55 333.256C2999.44 343.369 2994.38 357.977 2994.38 377.08V817H2867.97ZM2796.33 491.695V387.193H3074.44V491.695H2796.33ZM3146.08 817V210.213H3272.49V817H3146.08Z" fill="black"/>
<path d="M2560.84 825.428C2513.08 825.428 2471.51 816.157 2436.11 797.616C2400.72 778.514 2373.19 752.107 2353.52 718.397C2334.42 684.687 2324.87 645.92 2324.87 602.096C2324.87 557.711 2334.42 518.944 2353.52 485.796C2373.19 452.085 2400.44 425.96 2435.27 407.419C2470.1 388.316 2510.56 378.765 2556.63 378.765C2601.01 378.765 2639.5 387.755 2672.09 405.733C2704.67 423.712 2729.95 448.714 2747.93 480.739C2765.91 512.764 2774.9 550.407 2774.9 593.669C2774.9 602.658 2774.62 611.086 2774.06 618.952C2773.5 626.255 2772.65 633.278 2771.53 640.02H2399.03V556.587H2669.56L2647.65 571.757C2647.65 536.923 2639.22 511.359 2622.36 495.066C2606.07 478.211 2583.6 469.783 2554.94 469.783C2521.79 469.783 2495.95 481.02 2477.41 503.494C2459.43 525.967 2450.44 559.677 2450.44 604.625C2450.44 648.448 2459.43 681.035 2477.41 702.385C2495.95 723.735 2523.48 734.41 2560 734.41C2580.22 734.41 2597.64 731.038 2612.25 724.296C2626.86 717.554 2637.81 706.598 2645.12 691.429H2763.95C2749.9 733.005 2725.74 765.872 2691.47 790.032C2657.76 813.629 2614.22 825.428 2560.84 825.428Z" fill="black"/>
<path d="M2133.07 817V387.193H2259.49V817H2133.07Z" fill="black"/>
<path d="M1803.87 817V387.193H1927.76V488.324H1930.29V817H1803.87ZM1930.29 592.826L1919.33 490.852C1929.44 454.333 1946.02 426.522 1969.05 407.419C1992.09 388.316 2020.74 378.765 2055.01 378.765C2065.69 378.765 2073.55 379.889 2078.61 382.136V500.122C2075.8 498.999 2071.87 498.437 2066.81 498.437C2061.76 497.875 2055.58 497.594 2048.27 497.594C2007.82 497.594 1978.04 504.898 1958.94 519.506C1939.84 533.552 1930.29 557.992 1930.29 592.826Z" fill="black"/>
<path d="M1371.19 817V724.296H1527.94C1556.03 724.296 1577.1 716.712 1591.15 701.542C1605.76 685.81 1613.06 664.18 1613.06 636.649C1613.06 608.558 1605.19 586.365 1589.46 570.072C1574.29 553.778 1552.38 545.631 1523.73 545.631H1371.19V452.928H1516.98C1543.39 452.928 1563.34 446.748 1576.82 434.387C1590.87 421.465 1597.89 402.643 1597.89 377.922C1597.89 353.202 1591.15 334.661 1577.66 322.3C1564.74 309.378 1545.36 302.917 1519.51 302.917H1371.19V210.213H1547.32C1601.26 210.213 1644.8 223.978 1677.95 251.509C1711.1 279.039 1727.67 316.401 1727.67 363.596C1727.67 393.373 1720.65 418.937 1706.61 440.287C1692.56 461.637 1673.74 477.93 1650.14 489.167C1626.54 500.403 1600.14 506.022 1570.92 506.022L1575.14 488.324C1606.6 488.324 1634.97 495.066 1660.25 508.55C1686.1 522.034 1706.61 541.137 1721.78 565.858C1736.95 590.017 1744.53 618.671 1744.53 651.819C1744.53 684.968 1736.66 714.183 1720.93 739.466C1705.76 764.187 1684.13 783.29 1656.04 796.774C1628.51 810.258 1595.92 817 1558.28 817H1371.19ZM1265 817V210.213H1394.78V817H1265Z" fill="black"/>
<path d="M2193.86 336C2155.75 336 2124.86 305.108 2124.86 267C2124.86 228.892 2155.75 198 2193.86 198C2231.97 198 2262.86 228.892 2262.86 267C2262.86 305.108 2231.97 336 2193.86 336Z" fill="black"/>
</svg>
