<svg width="24" height="25" viewBox="0 0 24 25" fill="none" xmlns="http://www.w3.org/2000/svg">
<path fill-rule="evenodd" clip-rule="evenodd" d="M22.8129 13.6747C23.445 13.874 23.7958 14.548 23.5965 15.1801L23.2975 16.1286L22.8968 17.0959L22.4134 18.0245L21.8508 18.9075L21.2135 19.7381L20.5062 20.51L19.7343 21.2174L18.9036 21.8547L18.0206 22.4173L17.1384 22.8765C16.5506 23.1825 15.826 22.954 15.5199 22.3662C15.2139 21.7783 15.4424 21.0537 16.0303 20.7477L16.8195 20.3368L17.5258 19.8869L18.1901 19.3771L18.8075 18.8114L19.3732 18.194L19.883 17.5296L20.3329 16.8234L20.7196 16.0806L21.04 15.307L21.3076 14.4584C21.5069 13.8263 22.1809 13.4755 22.8129 13.6747Z" fill="#2F2F2F"/>
<path fill-rule="evenodd" clip-rule="evenodd" d="M22.916 11.3205C22.2689 11.464 21.6281 11.0557 21.4847 10.4087L21.2921 9.53999L21.0403 8.74135L20.7198 7.9677L20.3332 7.22493L19.8832 6.51868L19.3734 5.85433L18.8077 5.23694L18.1903 4.67121L17.526 4.16143L16.8197 3.7115L16.077 3.32484L15.3033 3.00438L14.5047 2.75257L13.6871 2.57133L12.8569 2.46203L12.0203 2.4255L11.1837 2.46203L10.3535 2.57133L9.53593 2.75257L8.7373 3.00438L7.96364 3.32484L7.22088 3.7115L6.51462 4.16143L5.85027 4.67121L5.23288 5.23694L4.66715 5.85433L4.15738 6.51868L3.70745 7.22492L3.32078 7.96771L3.00033 8.74134L2.74851 9.54L2.56727 10.3575L2.45797 11.1878L2.42144 12.0244L2.45797 12.8609L2.56727 13.6912L2.74852 14.5087L3.00032 15.3074L3.32078 16.081L3.70745 16.8238L4.15738 17.53L4.66715 18.1944L5.23289 18.8118L5.85027 19.3775L6.51461 19.8873L7.22089 20.3372L7.96365 20.7239L8.73728 21.0443L9.53594 21.2961L10.3535 21.4774L11.1837 21.5867L12.0726 21.6255C12.7348 21.6544 13.2481 22.2146 13.2192 22.8767C13.1902 23.5388 12.6301 24.0521 11.968 24.0232L10.9743 23.9798L9.93632 23.8432L8.91418 23.6166L7.91567 23.3017L6.9484 22.9011L6.01973 22.4176L5.13673 21.8551L4.30611 21.2178L3.53421 20.5104L2.82689 19.7385L2.18954 18.9079L1.627 18.0249L1.14357 17.0963L0.742916 16.129L0.428087 15.1305L0.20148 14.1083L0.0648234 13.0703L0.0191558 12.0244L0.0648261 10.9784L0.201482 9.94038L0.428087 8.91823L0.742913 7.91972L1.14357 6.95245L1.627 6.02378L2.18954 5.14078L2.82689 4.31017L3.53421 3.53827L4.30611 2.83095L5.13672 2.19359L6.01973 1.63106L6.9484 1.14763L7.91567 0.746971L8.91418 0.432143L9.93632 0.205538L10.9743 0.0688807L12.0203 0.0232129L13.0663 0.0688807L14.1043 0.205537L15.1264 0.432142L16.1249 0.746971L17.0922 1.14763L18.0209 1.63106L18.9039 2.1936L19.7345 2.83095L20.5064 3.53827L21.2137 4.31017L21.8511 5.14078L22.4136 6.02378L22.897 6.95245L23.2977 7.91972L23.6125 8.91823L23.8278 9.88923C23.9712 10.5363 23.563 11.1771 22.916 11.3205Z" fill="#787880" fill-opacity="0.36"/>
</svg>
