<svg width="20" height="20" viewBox="0 0 20 20" fill="none" xmlns="http://www.w3.org/2000/svg">
<g clip-path="url(#clip0_18_894)">
<path d="M3.08 5.62492H4.92125C5.16989 5.62492 5.40835 5.72369 5.58416 5.89951C5.75998 6.07532 5.85875 6.31378 5.85875 6.56242C5.85875 6.81106 5.75998 7.04952 5.58416 7.22533C5.40835 7.40115 5.16989 7.49992 4.92125 7.49992H0V2.57867C0 2.33003 0.098772 2.09157 0.274587 1.91576C0.450403 1.73994 0.68886 1.64117 0.9375 1.64117C1.18614 1.64117 1.4246 1.73994 1.60041 1.91576C1.77623 2.09157 1.875 2.33003 1.875 2.57867V4.16617C2.87412 3.10982 4.08534 2.27669 5.42915 1.72145C6.77296 1.16622 8.219 0.901426 9.67237 0.944459C11.1257 0.987493 12.5536 1.33738 13.8622 1.97115C15.1708 2.60492 16.3306 3.50826 17.2655 4.62187C18.2003 5.73548 18.8891 7.0342 19.2867 8.4328C19.6842 9.8314 19.7816 11.2983 19.5722 12.7371C19.3629 14.176 18.8517 15.5543 18.0721 16.7816C17.2925 18.009 16.2622 19.0576 15.0487 19.8587C14.8416 19.9874 14.5924 20.0303 14.3541 19.9782C14.1158 19.9262 13.9072 19.7834 13.7725 19.58C13.6378 19.3767 13.5876 19.1289 13.6327 18.8892C13.6777 18.6495 13.8144 18.4367 14.0138 18.2962C15.0144 17.6353 15.8626 16.7688 16.502 15.7543C17.1414 14.7398 17.5572 13.6007 17.7216 12.4129C17.8861 11.2251 17.7955 10.0158 17.4559 8.86578C17.1163 7.71574 16.5354 6.65129 15.752 5.74341C14.9686 4.83552 14.0007 4.10505 12.9127 3.60068C11.8248 3.09631 10.6419 2.82963 9.44279 2.81842C8.24369 2.80721 7.05597 3.05172 5.95881 3.53566C4.86164 4.01959 3.88024 4.73184 3.08 5.62492Z" fill="white" fill-opacity="0.698"/>
<path d="M0.37875 10.5089C1.36625 10.5089 1.89625 9.85887 1.89625 9.37512H3.77125V19.3751H1.89625V12.3839H0V10.5089H0.37875ZM6.41875 9.37012H11.4813V11.2451H7.9125L7.60625 12.5789C7.92625 12.4901 8.2625 12.4414 8.61125 12.4414C10.6375 12.4414 12.3038 14.0664 12.3038 16.0964C12.3038 18.1251 10.6375 19.7501 8.6125 19.7501C7.72108 19.754 6.85852 19.4344 6.18495 18.8505C5.51139 18.2666 5.07258 17.4581 4.95 16.5751L6.80875 16.3289C6.92375 17.1914 7.67875 17.8751 8.6125 17.8751C9.62875 17.8751 10.43 17.0664 10.43 16.0964C10.43 15.1264 9.63 14.3176 8.6125 14.3176C8 14.3176 7.4625 14.6114 7.13375 15.0601L7.12125 15.0776L6.86375 15.3951L5.22125 14.5964L6.42125 9.37012H6.41875Z" fill="white" fill-opacity="0.698"/>
</g>
<defs>
<clipPath id="clip0_18_894">
<rect width="20" height="20" fill="white"/>
</clipPath>
</defs>
</svg>
