<svg width="20" height="20" viewBox="0 0 20 20" fill="none" xmlns="http://www.w3.org/2000/svg">
<g clip-path="url(#clip0_18_898)">
<path d="M16.92 5.62516H15.0788C14.8301 5.62516 14.5917 5.72393 14.4159 5.89975C14.24 6.07556 14.1413 6.31402 14.1413 6.56266C14.1413 6.8113 14.24 7.04976 14.4159 7.22557C14.5917 7.40139 14.8301 7.50016 15.0788 7.50016H20V2.57891C20 2.33027 19.9013 2.09181 19.7254 1.916C19.5496 1.74018 19.3112 1.64141 19.0625 1.64141C18.8139 1.64141 18.5754 1.74018 18.3996 1.916C18.2238 2.09181 18.125 2.33027 18.125 2.57891V4.16641C17.126 3.10955 15.9148 2.27595 14.5708 1.72032C13.2268 1.16469 11.7805 0.899606 10.3269 0.942469C8.87319 0.985332 7.44503 1.33517 6.13613 1.96902C4.82723 2.60287 3.6672 3.5064 2.73219 4.62029C1.79718 5.73417 1.10834 7.03322 0.710887 8.43215C0.313438 9.83109 0.216369 11.2983 0.426053 12.7374C0.635737 14.1765 1.14743 15.5549 1.92754 16.7823C2.70766 18.0097 3.73854 19.0581 4.95253 19.8589C5.05497 19.9327 5.17126 19.9851 5.29443 20.0128C5.4176 20.0406 5.5451 20.0432 5.6693 20.0205C5.7935 19.9977 5.91182 19.9501 6.01718 19.8806C6.12254 19.811 6.21276 19.7208 6.28242 19.6156C6.35209 19.5103 6.39977 19.392 6.4226 19.2678C6.44543 19.1436 6.44294 19.0161 6.41528 18.8929C6.38763 18.7697 6.33537 18.6534 6.26165 18.5509C6.18793 18.4484 6.09427 18.3618 5.98628 18.2964C4.98514 17.6358 4.13634 16.7694 3.49649 15.7549C2.85663 14.7405 2.44042 13.6012 2.27561 12.4132C2.11079 11.2251 2.20117 10.0156 2.54071 8.86523C2.88025 7.71487 3.46115 6.65012 4.24467 5.74199C5.02819 4.83386 5.99632 4.10321 7.08451 3.59877C8.1727 3.09433 9.35593 2.82769 10.5553 2.81663C11.7547 2.80558 12.9426 3.05036 14.0399 3.53465C15.1372 4.01895 16.1186 4.73162 16.9188 5.62516H16.92Z" fill="white" fill-opacity="0.698"/>
<path d="M7.87875 10.5089C8.86625 10.5089 9.39625 9.85887 9.39625 9.37512H11.2713V19.3751H9.39625V12.3839H7.5V10.5089H7.87875ZM13.9188 9.37012H18.9813V11.2451H15.4125L15.1062 12.5789C15.4262 12.4901 15.7625 12.4414 16.1112 12.4414C18.1375 12.4414 19.8038 14.0664 19.8038 16.0964C19.8038 18.1264 18.1375 19.7501 16.1112 19.7501C15.2198 19.754 14.3573 19.4344 13.6837 18.8505C13.0101 18.2666 12.5713 17.4581 12.4487 16.5751L14.3075 16.3289C14.4225 17.1914 15.1775 17.8751 16.1112 17.8751C17.1275 17.8751 17.9288 17.0664 17.9288 16.0964C17.9288 15.1264 17.1287 14.3176 16.1112 14.3176C15.4987 14.3176 14.9613 14.6114 14.6325 15.0601L14.62 15.0776L14.3625 15.3951L12.72 14.5964L13.9188 9.37012Z" fill="white" fill-opacity="0.698"/>
</g>
<defs>
<clipPath id="clip0_18_898">
<rect width="20" height="20" fill="white"/>
</clipPath>
</defs>
</svg>
