<svg width="129" height="32" viewBox="0 0 129 32" fill="none" xmlns="http://www.w3.org/2000/svg">
<rect x="22.6704" y="0.333984" width="27.1154" height="4.92671" transform="rotate(90 22.6704 0.333984)" fill="black"/>
<rect x="14.4468" y="5.89062" width="16.0025" height="4.92671" transform="rotate(90 14.4468 5.89062)" fill="black"/>
<circle cx="3.11166" cy="13.8919" r="3.1116" transform="rotate(90 3.11166 13.8919)" fill="black"/>
<path d="M114.606 31.6638L119.008 21.9237L119.82 20.5813L123.94 9.34277H128.935L119.289 31.6638H114.606ZM117.978 24.9519L111.859 9.34277H116.916L121.943 23.5783L117.978 24.9519Z" fill="black"/>
<path d="M95.3788 25.2638V8.59322C95.3788 6.6785 95.8991 5.23205 96.9397 4.25388C97.9803 3.27571 99.5204 2.78662 101.56 2.78662H108.178V6.78256H102.372C101.581 6.78256 100.998 6.96987 100.623 7.34449C100.249 7.7191 100.062 8.26022 100.062 8.96784V25.2638H95.3788ZM92.7252 13.2135V9.34245H103.027V13.2135H92.7252ZM105.681 25.2638V2.78662H110.364V25.2638H105.681Z" fill="black"/>
<path d="M84.002 25.5759C82.2329 25.5759 80.6928 25.2325 79.3817 24.5457C78.0705 23.8381 77.0507 22.86 76.3223 21.6112C75.6147 20.3625 75.2609 18.9265 75.2609 17.3031C75.2609 15.659 75.6147 14.2229 76.3223 12.995C77.0507 11.7463 78.0601 10.7785 79.3505 10.0917C80.6408 9.38408 82.1393 9.03027 83.8459 9.03027C85.49 9.03027 86.9157 9.36327 88.1228 10.0293C89.3299 10.6952 90.2664 11.6214 90.9324 12.8077C91.5984 13.994 91.9314 15.3884 91.9314 16.9909C91.9314 17.3239 91.921 17.6361 91.9002 17.9275C91.8794 18.198 91.8482 18.4582 91.8065 18.7079H78.0081V15.6173H88.0291L87.2175 16.1793C87.2175 14.8889 86.9053 13.9419 86.2809 13.3384C85.6774 12.714 84.8449 12.4018 83.7834 12.4018C82.5555 12.4018 81.5982 12.8181 80.9114 13.6506C80.2454 14.4831 79.9124 15.7318 79.9124 17.3968C79.9124 19.0201 80.2454 20.2272 80.9114 21.0181C81.5982 21.8089 82.618 22.2044 83.9708 22.2044C84.72 22.2044 85.3652 22.0795 85.9063 21.8298C86.4474 21.58 86.8532 21.1742 87.1238 20.6122H91.5256C91.0053 22.1523 90.1103 23.3699 88.8408 24.2648C87.5921 25.1389 85.9791 25.5759 84.002 25.5759Z" fill="black"/>
<path d="M68.1562 25.2641V9.34277H72.839V25.2641H68.1562Z" fill="black"/>
<path d="M55.9615 25.2638V9.34246H60.5506V13.0886H60.6443V25.2638H55.9615ZM60.6443 16.9597L60.2384 13.1823C60.6131 11.8295 61.227 10.7993 62.0803 10.0917C62.9336 9.38408 63.995 9.03027 65.2646 9.03027C65.66 9.03027 65.9514 9.0719 66.1387 9.15515V13.5257C66.0346 13.4841 65.889 13.4633 65.7016 13.4633C65.5143 13.4425 65.2854 13.432 65.0148 13.432C63.5164 13.432 62.4133 13.7026 61.7057 14.2437C60.9981 14.764 60.6443 15.6694 60.6443 16.9597Z" fill="black"/>
<path d="M39.9336 25.2638V21.8298H45.7402C46.7808 21.8298 47.5613 21.5488 48.0816 20.9869C48.6227 20.4041 48.8933 19.6029 48.8933 18.5831C48.8933 17.5424 48.6019 16.7204 48.0192 16.1168C47.4572 15.5133 46.6455 15.2115 45.5841 15.2115H39.9336V11.7775H45.3344C46.3126 11.7775 47.0514 11.5485 47.5509 11.0907C48.0712 10.612 48.3313 9.91479 48.3313 8.99905C48.3313 8.08332 48.0816 7.39652 47.5821 6.93865C47.1034 6.45997 46.3854 6.22063 45.428 6.22063H39.9336V2.78662H46.4582C48.4562 2.78662 50.0691 3.29652 51.2971 4.31632C52.525 5.33611 53.1389 6.72012 53.1389 8.46834C53.1389 9.57139 52.8788 10.5183 52.3585 11.3092C51.8382 12.1001 51.141 12.7036 50.2669 13.1199C49.3928 13.5361 48.4146 13.7442 47.3323 13.7442L47.4884 13.0886C48.6539 13.0886 49.7049 13.3384 50.6415 13.8379C51.5988 14.3374 52.3585 15.045 52.9204 15.9607C53.4823 16.8556 53.7633 17.9171 53.7633 19.145C53.7633 20.3729 53.4719 21.4551 52.8892 22.3917C52.3273 23.3074 51.526 24.015 50.4854 24.5145C49.4656 25.014 48.2585 25.2638 46.8641 25.2638H39.9336ZM36.0001 25.2638V2.78662H40.8077V25.2638H36.0001Z" fill="black"/>
<path d="M70.4079 7.44639C68.9963 7.44639 67.8519 6.30205 67.8519 4.89043C67.8519 3.47882 68.9963 2.33447 70.4079 2.33447C71.8195 2.33447 72.9639 3.47882 72.9639 4.89043C72.9639 6.30205 71.8195 7.44639 70.4079 7.44639Z" fill="black"/>
</svg>
