<svg width="420" height="880" viewBox="0 0 420 880" fill="none" xmlns="http://www.w3.org/2000/svg">
  <g filter="url(#shadow)">
    <rect x="0" y="0" width="420" height="880" rx="44" fill="#0B1020"/>
  </g>
  <rect x="12" y="12" width="396" height="856" rx="36" fill="url(#grad)" stroke="#1E273F"/>
  <rect x="164" y="20" width="92" height="8" rx="4" fill="#1E273F"/>

  <text x="40" y="110" fill="white" font-family="Inter, Arial, sans-serif" font-size="22" font-weight="700" dominant-baseline="hanging">
    Settings
  </text>
  <text x="40" y="138" fill="#8AA0C5" font-family="Inter, Arial, sans-serif" font-size="13" font-weight="500" dominant-baseline="hanging">
    Manage your feed preferences
  </text>

  <g transform="translate(44 170)">
    <rect width="332" height="128" rx="22" fill="#0F1429" stroke="#1E273F"/>
    <text x="20" y="34" fill="white" font-family="Inter, Arial, sans-serif" font-size="18" font-weight="700">Delivery Schedule</text>
    <g transform="translate(20 58)">
      <rect width="292" height="60" rx="14" fill="#10162E" stroke="#1E273F"/>
      <text x="16" y="28" fill="#8DA2FF" font-family="Inter, Arial, sans-serif" font-size="16" font-weight="700">Daily Digest</text>
      <text x="16" y="48" fill="#6B7A99" font-family="Inter, Arial, sans-serif" font-size="12" font-weight="600">Generate episode at 7:00 AM</text>
      <rect x="228" y="14" width="52" height="32" rx="16" fill="#6C63FF"/>
      <circle cx="260" cy="30" r="12" fill="white"/>
    </g>
  </g>

  <g transform="translate(44 330)">
    <rect width="332" height="468" rx="22" fill="#0F1429" stroke="#1E273F"/>
    <text x="20" y="34" fill="white" font-family="Inter, Arial, sans-serif" font-size="18" font-weight="700">Your Interests</text>

    <g transform="translate(20 58)">
      <rect width="292" height="52" rx="14" fill="#121832" stroke="#1E273F"/>
      <text x="16" y="32" fill="#5F7195" font-family="Inter, Arial, sans-serif" font-size="14" font-weight="500">Add new topic...</text>
      <rect x="240" y="10" width="40" height="32" rx="12" fill="#6C63FF"/>
      <text x="255" y="31" fill="white" font-family="Inter, Arial, sans-serif" font-size="20" font-weight="700">+</text>
    </g>

    <g transform="translate(20 126)" fill="#131B34" stroke="#1E273F" stroke-width="1">
      <rect y="0" width="292" height="68" rx="14"/>
      <rect y="80" width="292" height="68" rx="14"/>
      <rect y="160" width="292" height="68" rx="14"/>
      <rect y="240" width="292" height="68" rx="14"/>
      <rect y="320" width="292" height="68" rx="14"/>
    </g>

    <g transform="translate(40 152)" fill="#C6D0EA" font-family="Inter, Arial, sans-serif" font-size="13" font-weight="600">
      <text y="0"><tspan x="0" dy="16">Interested in AI and future tech.</tspan></text>
      <text y="80"><tspan x="0" dy="16">Deep dives on language learning.</tspan></text>
      <text y="160"><tspan x="0" dy="16">Local events and council updates.</tspan></text>
      <text y="240"><tspan x="0" dy="16">Science and space discoveries.</tspan></text>
      <text y="320"><tspan x="0" dy="16">Media business and creator tips.</tspan></text>
    </g>

    <g transform="translate(268 158)" fill="#6B7A99">
      <rect y="0" width="18" height="18" rx="2"/>
      <rect y="80" width="18" height="18" rx="2"/>
      <rect y="160" width="18" height="18" rx="2"/>
      <rect y="240" width="18" height="18" rx="2"/>
      <rect y="320" width="18" height="18" rx="2"/>
    </g>
  </g>

  <defs>
    <linearGradient id="grad" x1="12" y1="12" x2="408" y2="868" gradientUnits="userSpaceOnUse">
      <stop stop-color="#0E1230"/>
      <stop offset="1" stop-color="#0A0D1E"/>
    </linearGradient>
    <filter id="shadow" x="-40" y="-40" width="500" height="960" filterUnits="userSpaceOnUse" color-interpolation-filters="sRGB">
      <feDropShadow dx="0" dy="20" stdDeviation="24" flood-color="#0A0C1C" flood-opacity="0.7"/>
    </filter>
  </defs>
</svg>
